<svg xmlns="http://www.w3.org/2000/svg" width="82" height="82" fill="none" viewBox="0 0 82 82"><path fill="#45413c" d="M16.23 76.02c0 .337.64.67 1.885.981s3.07.594 5.37.832 5.03.427 8.036.555c3.005.13 6.226.195 9.479.195s6.474-.066 9.48-.195c3.005-.129 5.735-.317 8.036-.555s4.124-.52 5.37-.832c1.244-.31 1.885-.644 1.885-.98 0-.337-.64-.67-1.886-.98-1.245-.312-3.07-.594-5.37-.832s-5.03-.427-8.036-.556A224 224 0 0 0 41 73.458c-3.253 0-6.474.067-9.48.195-3.005.13-5.735.318-8.036.556s-4.124.52-5.37.831c-1.244.311-1.885.644-1.885.98" opacity=".15"/><path fill="url(#a)" d="M30.391 76.687 4.22 50.533a1.18 1.18 0 0 1 .29-2.016l1.606-.684c.44-.136.91-.136 1.35 0L20.5 50.515l9.942 9.943 2.717 13c.09.458.048.932-.12 1.367l-.649 1.589a1.162 1.162 0 0 1-1.999.273"/><path fill="#0151a6" fill-opacity=".14" d="m25.01 59.348 1.965-2.307-6.475-6.525-13.035-2.683a2.27 2.27 0 0 0-1.35.12l-1.605.632a1.178 1.178 0 0 0-.29 2.016l1.708 1.708h.205a2.27 2.27 0 0 1 1.35-.12L20.5 54.787z"/><path fill="url(#b)" d="m30.391 60.458-.871-.871-10.626 5.637 5.467 5.45a8.5 8.5 0 0 0 2.477-.359 15.2 15.2 0 0 0 5.125-2.819z"/><path stroke="#45413c" stroke-linecap="round" stroke-linejoin="round" stroke-width=".5" d="M30.391 76.687 4.22 50.533a1.18 1.18 0 0 1 .29-2.016l1.606-.684c.44-.136.91-.136 1.35 0L20.5 50.515l9.942 9.943 2.717 13c.09.458.048.932-.12 1.367l-.649 1.589a1.16 1.16 0 0 1-1.999.273"/><path fill="#c0dceb" stroke="#45413c" stroke-linecap="round" stroke-linejoin="round" stroke-width=".5" d="m68.926 45.835 3.383 3.382a2.393 2.393 0 0 1 0 3.383l-9.314 9.31-6.765-6.763 9.314-9.314a2.393 2.393 0 0 1 3.382.002M31.684 8.615l3.383 3.383a2.39 2.39 0 0 1 0 3.382l-9.302 9.302L19 17.917l9.302-9.302a2.39 2.39 0 0 1 3.382 0"/><path fill="url(#c)" d="m64.66 69.683-16.058-20.5-16.912-16.93-20.5-16.058a2.39 2.39 0 0 1 .58-4.1l3.263-1.298a4.66 4.66 0 0 1 2.768-.24l26.616 5.69 20.278 20.311 5.62 26.497c.175.93.08 1.89-.273 2.767l-1.316 3.263a2.39 2.39 0 0 1-4.066.598"/><path fill="url(#d)" d="m63.157 35.02 1.538 1.521 1.93 9.106-13.188 9.72-4.818-6.133-1.264-1.247z"/><path fill="#0151a6" fill-opacity=".14" d="m45.459 17.306-3.144 3.775-24.429-5.125a4.7 4.7 0 0 0-2.784.24l-2.648 1.058-1.196-.94a2.391 2.391 0 0 1 .58-4.1l3.264-1.315a4.95 4.95 0 0 1 2.784-.239l26.53 5.57z"/><path stroke="#45413c" stroke-linecap="round" stroke-linejoin="round" stroke-width=".5" d="m64.66 69.683-16.058-20.5-16.912-16.93-20.5-16.058a2.39 2.39 0 0 1 .58-4.1l3.263-1.298a4.66 4.66 0 0 1 2.768-.24l26.616 5.69 20.278 20.311 5.62 26.497c.175.93.08 1.89-.273 2.767l-1.316 3.263a2.39 2.39 0 0 1-4.066.598"/><path fill="#fff" d="m15.375 59.792 30.99-37.276a15.4 15.4 0 0 1 2.579-2.443c7.585-6.56 19.03-11.19 24.207-6.013a7.43 7.43 0 0 1 1.862 3.263c.786-3.827.393-7.312-1.862-9.567-5.125-5.125-16.622-.53-24.207 6.03a14.4 14.4 0 0 0-2.58 2.426L15.375 53.54a9.04 9.04 0 0 0-1.606 9.037 9.7 9.7 0 0 1 1.606-2.784"/><path fill="#e8f4fa" d="M67.138 31.98c6.56-7.585 11.206-19.03 6.013-24.224s-16.622-.53-24.207 6.03a14.4 14.4 0 0 0-2.58 2.426L15.375 53.54a8.73 8.73 0 0 0 .188 11.77 8.747 8.747 0 0 0 11.77.206l37.379-30.973a15 15 0 0 0 2.425-2.562"/><path stroke="#45413c" stroke-linecap="round" stroke-linejoin="round" stroke-width=".5" d="M67.138 31.98c6.56-7.585 11.206-19.03 6.013-24.224s-16.622-.53-24.207 6.03a14.4 14.4 0 0 0-2.58 2.426L15.375 53.54a8.73 8.73 0 0 0 .188 11.77 8.747 8.747 0 0 0 11.77.206l37.379-30.973a15 15 0 0 0 2.425-2.562"/><path fill="url(#e)" d="M66.335 14.572a12.68 12.68 0 0 0-10.968-3.416l-.58 5.124a1.196 1.196 0 0 0 1.383 1.333c1.708-.29 4.493-.273 5.928 1.162s1.47 4.288 1.162 5.945a1.196 1.196 0 0 0 1.332 1.383l5.125-.58a12.76 12.76 0 0 0-3.382-10.95"/><path fill="url(#f)" d="m55.367 11.121-.58 5.125a1.196 1.196 0 0 0 1.383 1.333c.977-.16 1.97-.19 2.955-.086l7.039-3.16a12.73 12.73 0 0 0-10.797-3.212"/><path stroke="#45413c" stroke-linecap="round" stroke-linejoin="round" stroke-width=".5" d="M66.335 14.572a12.68 12.68 0 0 0-10.968-3.416l-.58 5.124a1.196 1.196 0 0 0 1.383 1.333c1.708-.29 4.493-.273 5.928 1.162s1.47 4.288 1.162 5.945a1.196 1.196 0 0 0 1.332 1.383l5.125-.58a12.76 12.76 0 0 0-3.382-10.95"/><path stroke="#45413c" stroke-linecap="round" stroke-linejoin="round" stroke-width=".5" d="M67.138 31.98a13.43 13.43 0 0 0-.803-17.408 13.38 13.38 0 0 0-17.391-.786"/><path fill="url(#g)" stroke="#45413c" stroke-linecap="round" stroke-linejoin="round" stroke-width=".5" d="M15.597 65.31a2.41 2.41 0 0 1 0-3.417l9.31-9.31a2.416 2.416 0 0 1 3.417 3.416l-9.31 9.31a2.41 2.41 0 0 1-3.417 0"/><defs><linearGradient id="a" x1="18.489" x2="18.489" y1="47.731" y2="77.141" gradientUnits="userSpaceOnUse"><stop stop-color="#0151a6"/><stop offset=".365" stop-color="#1089d3"/></linearGradient><linearGradient id="b" x1="25.428" x2="25.428" y1="59.587" y2="70.674" gradientUnits="userSpaceOnUse"><stop stop-color="#0151a6"/><stop offset=".365" stop-color="#1089d3"/></linearGradient><linearGradient id="c" x1="40.337" x2="40.337" y1="10.449" y2="70.565" gradientUnits="userSpaceOnUse"><stop stop-color="#0151a6"/><stop offset=".365" stop-color="#1089d3"/></linearGradient><linearGradient id="d" x1="56.99" x2="56.99" y1="35.021" y2="55.367" gradientUnits="userSpaceOnUse"><stop stop-color="#0151a6"/><stop offset=".365" stop-color="#1089d3"/></linearGradient><linearGradient id="e" x1="62.335" x2="62.335" y1="10.976" y2="26.113" gradientUnits="userSpaceOnUse"><stop stop-color="#0151a6"/><stop offset=".365" stop-color="#1089d3"/></linearGradient><linearGradient id="f" x1="60.47" x2="60.47" y1="10.939" y2="17.595" gradientUnits="userSpaceOnUse"><stop stop-color="#0151a6"/><stop offset=".365" stop-color="#1089d3"/></linearGradient><linearGradient id="g" x1="21.959" x2="21.959" y1="51.875" y2="66.02" gradientUnits="userSpaceOnUse"><stop stop-color="#0151a6"/><stop offset=".365" stop-color="#1089d3"/></linearGradient></defs></svg>