<svg width="10" height="14" viewBox="0 0 10 14" fill="none" xmlns="http://www.w3.org/2000/svg">
<g clip-path="url(#clip0_98_57)">
<path d="M8.28288 6.98507C8.27768 6.03125 8.70911 5.31134 9.58236 4.78115C9.09375 4.08203 8.35565 3.69739 7.38104 3.62202C6.45841 3.54924 5.45002 4.16 5.08096 4.16C4.69112 4.16 3.79708 3.64801 3.09536 3.64801C1.64514 3.6714 0.103958 4.80454 0.103958 7.10982L0.478208 9.22017C0.810875 10.174 2.01159 12.5131 3.26429 12.4741C3.91923 12.4585 4.38184 12.0089 5.2343 12.0089C6.06077 12.0089 6.4896 12.4741 7.21991 12.4741C8.483 12.4559 9.56936 10.3299 9.88644 9.37351C8.19192 8.57563 8.28288 7.03445 8.28288 6.98507ZM6.81187 2.71758C7.52139 1.87552 7.45641 1.10882 7.43562 0.833333C6.80927 0.869719 6.08416 1.25956 5.67093 1.74037C5.21611 2.25496 4.94842 2.89171 5.00559 3.60902C5.68392 3.661 6.30247 3.31274 6.81187 2.71758Z" fill="white"/>
</g>
<defs>
<clipPath id="clip0_98_57">
<rect width="9.98" height="13.31" fill="white"/>
</clipPath>
</defs>
</svg>
