<svg width="75" height="75" viewBox="0 0 75 75" fill="none" xmlns="http://www.w3.org/2000/svg">
<g filter="url(#filter0_d_53_801)">
<path d="M64.9375 34.7812C64.9375 35.7721 65.4357 36.6881 66.2134 37.3022C67.172 38.0592 68.0528 38.882 68.856 39.7705C70.0034 41.04 70.9922 42.4316 71.8223 43.9453C72.6523 45.459 73.2627 47.0581 73.6533 48.7427C74.0439 50.4272 74.2637 52.1484 74.3125 53.9062C74.3125 56.8115 73.7632 59.5459 72.6646 62.1094C71.5659 64.6729 70.0522 66.9067 68.1235 68.811C66.1948 70.7153 63.9609 72.2168 61.4219 73.3154C58.8828 74.4141 56.1484 74.9756 53.2188 75C50.9971 75 48.8486 74.6704 46.7734 74.0112C44.6982 73.3521 42.7939 72.3999 41.0605 71.1548C39.3271 69.9097 37.7891 68.4204 36.4463 66.687C35.5362 65.5122 34.7663 64.2532 34.1366 62.9102C33.5949 61.7549 32.4787 60.9375 31.2027 60.9375H7C5.34315 60.9375 4 59.5944 4 57.9375V7.6875C4 6.03065 5.34315 4.6875 7 4.6875H11.0312C12.3257 4.6875 13.375 3.63817 13.375 2.34375C13.375 1.04933 14.4243 0 15.7188 0C17.0132 0 18.0625 1.04933 18.0625 2.34375C18.0625 3.63817 19.1118 4.6875 20.4062 4.6875H48.5312C49.8257 4.6875 50.875 3.63817 50.875 2.34375C50.875 1.04933 51.9243 0 53.2188 0C54.5132 0 55.5625 1.04933 55.5625 2.34375C55.5625 3.63817 56.6118 4.6875 57.9062 4.6875H61.9375C63.5944 4.6875 64.9375 6.03065 64.9375 7.6875V34.7812ZM11.0312 9.375C9.73683 9.375 8.6875 10.4243 8.6875 11.7188V15.75C8.6875 17.4069 10.0306 18.75 11.6875 18.75H57.25C58.9069 18.75 60.25 17.4069 60.25 15.75V11.7188C60.25 10.4243 59.2007 9.375 57.9062 9.375C56.6118 9.375 55.5625 10.4243 55.5625 11.7188C55.5625 13.0132 54.5132 14.0625 53.2188 14.0625C51.9243 14.0625 50.875 13.0132 50.875 11.7188C50.875 10.4243 49.8257 9.375 48.5312 9.375H20.4062C19.1118 9.375 18.0625 10.4243 18.0625 11.7188C18.0625 13.0132 17.0132 14.0625 15.7188 14.0625C14.4243 14.0625 13.375 13.0132 13.375 11.7188C13.375 10.4243 12.3257 9.375 11.0312 9.375ZM29.8876 56.25C31.1457 56.25 32.125 55.1643 32.125 53.9062C32.125 51.8066 32.418 49.7681 33.0039 47.7905C33.3738 46.542 33.8654 45.3372 34.4787 44.1762C34.9397 43.3035 34.3411 42.1875 33.3541 42.1875C32.6753 42.1875 32.125 41.6372 32.125 40.9584V39.8438C32.125 38.5493 33.1743 37.5 34.4688 37.5H35.9923C36.4453 37.5 36.8125 37.8672 36.8125 38.3202C36.8125 39.0945 37.8198 39.464 38.3693 38.9184C38.9328 38.359 39.5247 37.8373 40.145 37.3535C41.3657 36.4014 42.6841 35.5835 44.1001 34.8999C45.5161 34.2163 46.9932 33.7036 48.5312 33.3618C50.0693 33.02 51.6318 32.8369 53.2188 32.8125C54.2006 32.8125 55.1666 32.8776 56.1168 33.0079C58.1739 33.29 60.25 31.8341 60.25 29.7578V26.4375C60.25 24.7806 58.9069 23.4375 57.25 23.4375H11.6875C10.0306 23.4375 8.6875 24.7806 8.6875 26.4375V53.25C8.6875 54.9069 10.0306 56.25 11.6875 56.25H29.8876ZM53.2188 70.3125C55.4893 70.3125 57.6133 69.8853 59.5908 69.0308C61.5684 68.1763 63.3018 67.0044 64.791 65.5151C66.2803 64.0259 67.4521 62.2925 68.3066 60.3149C69.1611 58.3374 69.6006 56.2012 69.625 53.9062C69.625 51.6357 69.1978 49.5117 68.3433 47.5342C67.4888 45.5566 66.3169 43.8232 64.8276 42.334C63.3384 40.8447 61.605 39.6729 59.6274 38.8184C57.6499 37.9639 55.5137 37.5244 53.2188 37.5C50.9482 37.5 48.8242 37.9272 46.8467 38.7817C44.8691 39.6362 43.1357 40.8081 41.6465 42.2974C40.1572 43.7866 38.9854 45.52 38.1309 47.4976C37.2764 49.4751 36.8369 51.6113 36.8125 53.9062C36.8125 56.1768 37.2397 58.3008 38.0942 60.2783C38.9487 62.2559 40.1206 63.9893 41.6099 65.4785C43.0991 66.9678 44.8325 68.1396 46.8101 68.9941C48.7876 69.8486 50.9238 70.2881 53.2188 70.3125ZM55.5625 48.5625C55.5625 50.2194 56.9056 51.5625 58.5625 51.5625H60.25C61.5444 51.5625 62.5938 52.6118 62.5938 53.9062C62.5938 55.2007 61.5444 56.25 60.25 56.25H53.875C52.2181 56.25 50.875 54.9069 50.875 53.25V44.5312C50.875 43.2368 51.9243 42.1875 53.2188 42.1875C54.5132 42.1875 55.5625 43.2368 55.5625 44.5312V48.5625ZM13.375 39.8438C13.375 38.5493 14.4243 37.5 15.7188 37.5C17.0132 37.5 18.0625 38.5493 18.0625 39.8438C18.0625 41.1382 17.0132 42.1875 15.7188 42.1875C14.4243 42.1875 13.375 41.1382 13.375 39.8438ZM22.75 39.8438C22.75 38.5493 23.7993 37.5 25.0938 37.5C26.3882 37.5 27.4375 38.5493 27.4375 39.8438C27.4375 41.1382 26.3882 42.1875 25.0938 42.1875C23.7993 42.1875 22.75 41.1382 22.75 39.8438ZM22.75 30.4688C22.75 29.1743 23.7993 28.125 25.0938 28.125C26.3882 28.125 27.4375 29.1743 27.4375 30.4688C27.4375 31.7632 26.3882 32.8125 25.0938 32.8125C23.7993 32.8125 22.75 31.7632 22.75 30.4688ZM13.375 49.2188C13.375 47.9243 14.4243 46.875 15.7188 46.875C17.0132 46.875 18.0625 47.9243 18.0625 49.2188C18.0625 50.5132 17.0132 51.5625 15.7188 51.5625C14.4243 51.5625 13.375 50.5132 13.375 49.2188ZM22.75 49.2188C22.75 47.9243 23.7993 46.875 25.0938 46.875C26.3882 46.875 27.4375 47.9243 27.4375 49.2188C27.4375 50.5132 26.3882 51.5625 25.0938 51.5625C23.7993 51.5625 22.75 50.5132 22.75 49.2188ZM36.8125 30.4688C36.8125 31.7632 35.7632 32.8125 34.4688 32.8125C33.1743 32.8125 32.125 31.7632 32.125 30.4688C32.125 29.1743 33.1743 28.125 34.4688 28.125C35.7632 28.125 36.8125 29.1743 36.8125 30.4688ZM46.1875 30.4688C46.1875 31.7632 45.1382 32.8125 43.8438 32.8125C42.5493 32.8125 41.5 31.7632 41.5 30.4688C41.5 29.1743 42.5493 28.125 43.8438 28.125C45.1382 28.125 46.1875 29.1743 46.1875 30.4688ZM55.5625 30.4688C55.5625 31.7632 54.5132 32.8125 53.2188 32.8125C51.9243 32.8125 50.875 31.7632 50.875 30.4688C50.875 29.1743 51.9243 28.125 53.2188 28.125C54.5132 28.125 55.5625 29.1743 55.5625 30.4688Z" fill="url(#paint0_linear_53_801)"/>
</g>
<defs>
<filter id="filter0_d_53_801" x="0" y="0" width="78.3125" height="83" filterUnits="userSpaceOnUse" color-interpolation-filters="sRGB">
<feFlood flood-opacity="0" result="BackgroundImageFix"/>
<feColorMatrix in="SourceAlpha" type="matrix" values="0 0 0 0 0 0 0 0 0 0 0 0 0 0 0 0 0 0 127 0" result="hardAlpha"/>
<feOffset dy="4"/>
<feGaussianBlur stdDeviation="2"/>
<feComposite in2="hardAlpha" operator="out"/>
<feColorMatrix type="matrix" values="0 0 0 0 0 0 0 0 0 0 0 0 0 0 0 0 0 0 0.2 0"/>
<feBlend mode="normal" in2="BackgroundImageFix" result="effect1_dropShadow_53_801"/>
<feBlend mode="normal" in="SourceGraphic" in2="effect1_dropShadow_53_801" result="shape"/>
</filter>
<linearGradient id="paint0_linear_53_801" x1="39.1562" y1="0" x2="39.1563" y2="75" gradientUnits="userSpaceOnUse">
<stop stop-color="#0151A6"/>
<stop offset="0.615385" stop-color="#1089D3"/>
</linearGradient>
</defs>
</svg>
