<svg width="43" height="70" viewBox="0 0 43 70" fill="none" xmlns="http://www.w3.org/2000/svg">
<g filter="url(#filter0_d_53_799)">
<path d="M22.1083 26.9917C14.3525 24.9758 11.8583 22.8917 11.8583 19.6458C11.8583 15.9217 15.3092 13.325 21.0833 13.325C25.935 13.325 28.3608 15.17 29.2492 18.1083C29.6592 19.475 30.7867 20.5 32.2217 20.5H33.2467C35.5017 20.5 37.1075 18.2792 36.3217 16.1608C34.8867 12.1292 31.5383 8.78083 26.2083 7.4825V5.125C26.2083 2.28917 23.9192 0 21.0833 0C18.2475 0 15.9583 2.28917 15.9583 5.125V7.38C9.33 8.815 4 13.12 4 19.7142C4 27.6067 10.5258 31.5358 20.0583 33.825C28.6 35.875 30.3083 38.8817 30.3083 42.0592C30.3083 44.4167 28.6342 48.175 21.0833 48.175C15.4458 48.175 12.5417 46.1592 11.4142 43.2892C10.9017 41.9567 9.74 41 8.33917 41H7.3825C5.09333 41 3.4875 43.3233 4.34167 45.4417C6.28917 50.1908 10.8333 52.9925 15.9583 54.0858V56.375C15.9583 59.2108 18.2475 61.5 21.0833 61.5C23.9192 61.5 26.2083 59.2108 26.2083 56.375V54.1542C32.8708 52.89 38.1667 49.0292 38.1667 42.025C38.1667 32.3217 29.8642 29.0075 22.1083 26.9917Z" fill="url(#paint0_linear_53_799)"/>
</g>
<defs>
<filter id="filter0_d_53_799" x="0" y="0" width="42.1667" height="69.5" filterUnits="userSpaceOnUse" color-interpolation-filters="sRGB">
<feFlood flood-opacity="0" result="BackgroundImageFix"/>
<feColorMatrix in="SourceAlpha" type="matrix" values="0 0 0 0 0 0 0 0 0 0 0 0 0 0 0 0 0 0 127 0" result="hardAlpha"/>
<feOffset dy="4"/>
<feGaussianBlur stdDeviation="2"/>
<feComposite in2="hardAlpha" operator="out"/>
<feColorMatrix type="matrix" values="0 0 0 0 0 0 0 0 0 0 0 0 0 0 0 0 0 0 0.25 0"/>
<feBlend mode="normal" in2="BackgroundImageFix" result="effect1_dropShadow_53_799"/>
<feBlend mode="normal" in="SourceGraphic" in2="effect1_dropShadow_53_799" result="shape"/>
</filter>
<linearGradient id="paint0_linear_53_799" x1="21.0833" y1="0" x2="21.0833" y2="61.5" gradientUnits="userSpaceOnUse">
<stop stop-color="#0151A6"/>
<stop offset="0.5" stop-color="#1089D3"/>
</linearGradient>
</defs>
</svg>
