<svg width="19" height="19" viewBox="0 0 19 19" fill="none" xmlns="http://www.w3.org/2000/svg">
<path d="M9.1675 0.01C7.3925 0.01 6.1175 0.0305556 5.3425 0.0716667C4.65507 0.0971156 3.97409 0.213976 3.3175 0.419167C2.64833 0.6575 2.0425 1.0425 1.53417 1.54417C1.02583 2.04583 0.650833 2.65167 0.409167 3.32667C0.203976 3.98325 0.0871156 4.66424 0.0616666 5.35167C0.0199999 6.13 0 7.40167 0 9.17667C0 10.9517 0.0205555 12.2267 0.0616666 13.0017C0.0866666 13.6892 0.203333 14.3683 0.409167 15.0267C0.648354 15.6967 1.03249 16.3056 1.53417 16.81C2.03083 17.31 2.6425 17.685 3.3175 17.8933C3.96833 18.1267 4.65083 18.2575 5.3425 18.2817C6.12 18.3233 7.3925 18.3433 9.1675 18.3433C10.9425 18.3433 12.2175 18.3228 12.9925 18.2817C13.6799 18.2562 14.3609 18.1394 15.0175 17.9342C15.6875 17.695 16.2964 17.3108 16.8008 16.8092C17.3025 16.3048 17.6866 15.6958 17.9258 15.0258C18.1317 14.3692 18.2483 13.6842 18.2733 13.0008C18.315 12.2233 18.335 10.9508 18.335 9.17583C18.335 7.40083 18.3217 6.13417 18.2942 5.3675C18.2576 4.67145 18.1339 3.98274 17.9258 3.3175C17.6866 2.64751 17.3025 2.03857 16.8008 1.53417C16.2964 1.03249 15.6875 0.648354 15.0175 0.409167C14.3609 0.203976 13.6799 0.0871157 12.9925 0.0616667C12.215 0.02 10.9425 0 9.1675 0V0.01ZM8.5125 16.6767C7.42083 16.6767 6.57917 16.6633 5.97917 16.6358C5.23194 16.6233 4.48955 16.5132 3.77083 16.3083C3.37072 16.1533 3.00736 15.9165 2.70401 15.613C2.40066 15.3095 2.164 14.946 2.00917 14.5458C1.80433 13.8271 1.69423 13.0847 1.68167 12.3375C1.65417 11.7375 1.64 10.8875 1.64 9.80417V8.49583C1.64 7.40417 1.65417 6.5625 1.68167 5.9625C1.68923 5.21487 1.79943 4.47182 2.00917 3.75417C2.15655 3.35027 2.39044 2.98348 2.69446 2.67946C2.99848 2.37544 3.36527 2.14155 3.76917 1.99417C4.48788 1.78933 5.23027 1.67923 5.9775 1.66667C6.5775 1.63917 7.4275 1.625 8.51083 1.625H9.81917C10.9108 1.625 11.7525 1.63917 12.3525 1.66667C13.1001 1.67423 13.8432 1.78443 14.5608 1.99417C14.9649 2.14145 15.3318 2.37529 15.636 2.67931C15.9402 2.98334 16.1742 3.35019 16.3217 3.75417C16.5308 4.4725 16.6408 5.2125 16.6492 5.9625C16.6758 6.53528 16.6894 7.37972 16.69 8.49583V9.80417C16.69 10.8958 16.6758 11.7375 16.6492 12.3375C16.6358 13.085 16.5258 13.8292 16.3217 14.5458C16.1644 14.9448 15.9276 15.3077 15.6258 15.6125C15.3226 15.9161 14.9593 16.1531 14.5592 16.3083C13.8411 16.5161 13.0983 16.6262 12.3508 16.6358C11.7786 16.6636 10.9342 16.6772 9.8175 16.6767H8.50917H8.5125ZM14.0792 3.09333C13.8529 3.09308 13.6317 3.16005 13.4436 3.28574C13.2555 3.41143 13.109 3.59018 13.0226 3.79929C12.9363 4.0084 12.914 4.23846 12.9587 4.46025C13.0033 4.68204 13.1128 4.88557 13.2733 5.045C13.3774 5.15387 13.5026 5.24022 13.6414 5.2987C13.7801 5.35718 13.9294 5.38656 14.08 5.385C14.2277 5.38778 14.3742 5.35887 14.5098 5.30022C14.6453 5.24157 14.7668 5.15454 14.8658 5.045C15.0738 4.82505 15.2008 4.54086 15.2258 4.23917C15.2217 3.9364 15.0996 3.64721 14.8854 3.43318C14.6712 3.21916 14.3819 3.09722 14.0792 3.09333ZM9.17083 4.56833C8.36513 4.5629 7.57307 4.77633 6.87917 5.18583C6.18442 5.58868 5.60701 6.16609 5.20417 6.86083C4.79943 7.55675 4.58622 8.34745 4.58622 9.1525C4.58622 9.95755 4.79943 10.7482 5.20417 11.4442C5.60608 12.1396 6.1837 12.7173 6.87917 13.1192C7.57508 13.5239 8.36578 13.7371 9.17083 13.7371C9.97589 13.7371 10.7666 13.5239 11.4625 13.1192C12.158 12.7173 12.7356 12.1396 13.1375 11.4442C13.5422 10.7482 13.7554 9.95755 13.7554 9.1525C13.7554 8.34745 13.5422 7.55675 13.1375 6.86083C12.7347 6.16609 12.1572 5.58868 11.4625 5.18583C10.7686 4.77633 9.97654 4.5629 9.17083 4.56833ZM9.17083 12.1017C8.78363 12.1014 8.40027 12.0248 8.04277 11.876C7.68526 11.7273 7.36063 11.5095 7.0875 11.235C6.53395 10.6828 6.22223 9.93352 6.22083 9.15167C6.22107 8.76446 6.29775 8.38111 6.44647 8.0236C6.5952 7.66609 6.81304 7.34146 7.0875 7.06833C7.63966 6.51478 8.38898 6.20306 9.17083 6.20167C9.55804 6.2019 9.94139 6.27858 10.2989 6.42731C10.6564 6.57603 10.981 6.79387 11.2542 7.06833C11.8077 7.62049 12.1194 8.36981 12.1208 9.15167C12.1206 9.53887 12.0439 9.92223 11.8952 10.2797C11.7465 10.6372 11.5286 10.9619 11.2542 11.235C10.702 11.7886 9.95269 12.1003 9.17083 12.1017Z" fill="url(#paint0_linear_61_880)"/>
<defs>
<linearGradient id="paint0_linear_61_880" x1="9.1675" y1="0" x2="9.1675" y2="18.3433" gradientUnits="userSpaceOnUse">
<stop stop-color="#0151A6"/>
<stop offset="1" stop-color="#1089D3"/>
</linearGradient>
</defs>
</svg>
