<svg width="100" height="100" viewBox="0 0 100 100" fill="none" xmlns="http://www.w3.org/2000/svg">
<path d="M50 8.33331C40.0544 8.33331 30.5161 12.2842 23.4835 19.3168C16.4509 26.3494 12.5 35.8877 12.5 45.8333C12.5 63.2083 24.3333 77.7917 40.375 82.0417L50 91.6667L59.625 82.0417C75.6667 77.7917 87.5 63.2083 87.5 45.8333C87.5 35.8877 83.5491 26.3494 76.5165 19.3168C69.4839 12.2842 59.9456 8.33331 50 8.33331ZM50 16.6666C56.9167 16.6666 62.5 22.25 62.5 29.1666C62.5 36.0833 56.9167 41.6666 50 41.6666C43.0833 41.6666 37.5 36.0833 37.5 29.1666C37.5 22.25 43.0833 16.6666 50 16.6666ZM50 76.25C45.0494 76.25 40.1758 75.0249 35.8137 72.6839C31.4516 70.3429 27.7366 66.9588 25 62.8333C25.125 54.5416 41.6667 50 50 50C58.2917 50 74.875 54.5416 75 62.8333C72.2634 66.9588 68.5484 70.3429 64.1863 72.6839C59.8242 75.0249 54.9506 76.25 50 76.25Z" fill="url(#paint0_linear_92_31)"/>
<defs>
<linearGradient id="paint0_linear_92_31" x1="50" y1="8.33331" x2="50" y2="91.6666" gradientUnits="userSpaceOnUse">
<stop stop-color="#0151A6"/>
<stop offset="0.543269" stop-color="#1089D3"/>
</linearGradient>
</defs>
</svg>
