<svg width="24" height="24" viewBox="0 0 24 24" fill="none" xmlns="http://www.w3.org/2000/svg">
<path d="M21.875 23.75C22.3723 23.75 22.8492 23.5525 23.2008 23.2008C23.5525 22.8492 23.75 22.3723 23.75 21.875V17.5C23.75 17.0027 23.5525 16.5258 23.2008 16.1742C22.8492 15.8225 22.3723 15.625 21.875 15.625C20.4125 15.625 18.975 15.4 17.6 14.9375C17.2713 14.8337 16.9204 14.822 16.5854 14.9035C16.2505 14.985 15.9443 15.1568 15.7 15.4L13.9 17.2C10.7903 15.503 8.23448 12.9472 6.5375 9.8375L8.325 8.05C8.8375 7.5625 9.025 6.8375 8.8 6.1375C8.35 4.775 8.125 3.3375 8.125 1.875C8.125 1.37772 7.92746 0.900806 7.57583 0.549175C7.22419 0.197544 6.74728 0 6.25 0H1.875C1.37772 0 0.900806 0.197544 0.549175 0.549175C0.197544 0.900806 0 1.37772 0 1.875C0 13.9375 9.8125 23.75 21.875 23.75ZM1.875 1.25H6.25C6.41576 1.25 6.57473 1.31585 6.69194 1.43306C6.80915 1.55027 6.875 1.70924 6.875 1.875C6.875 3.475 7.125 5.0375 7.6125 6.525C7.675 6.7 7.6625 6.95 7.4625 7.15L5 9.6C7.0625 13.6375 10.0875 16.6625 14.1375 18.75L16.575 16.2875C16.75 16.1125 16.9875 16.0625 17.2125 16.125C18.7125 16.625 20.275 16.875 21.875 16.875C22.0408 16.875 22.1997 16.9408 22.3169 17.0581C22.4342 17.1753 22.5 17.3342 22.5 17.5V21.875C22.5 22.0408 22.4342 22.1997 22.3169 22.3169C22.1997 22.4342 22.0408 22.5 21.875 22.5C10.5 22.5 1.25 13.25 1.25 1.875C1.25 1.70924 1.31585 1.55027 1.43306 1.43306C1.55027 1.31585 1.70924 1.25 1.875 1.25Z" fill="url(#paint0_linear_61_860)"/>
<defs>
<linearGradient id="paint0_linear_61_860" x1="11.875" y1="0" x2="11.875" y2="23.75" gradientUnits="userSpaceOnUse">
<stop stop-color="#0151A6"/>
<stop offset="1" stop-color="#1089D3"/>
</linearGradient>
</defs>
</svg>
