<svg width="14" height="14" viewBox="0 0 14 14" fill="none" xmlns="http://www.w3.org/2000/svg">
<path d="M12.25 9.57833V11.641C12.2501 11.7887 12.1941 11.9309 12.0934 12.0389C11.9927 12.147 11.8548 12.2128 11.7075 12.2232C11.4528 12.2411 11.2447 12.25 11.0833 12.25C5.92842 12.25 1.75 8.07158 1.75 2.91667C1.75 2.75567 1.75894 2.54761 1.77683 2.2925C1.78717 2.14518 1.85301 2.00726 1.96105 1.90657C2.0691 1.80589 2.21131 1.74993 2.359 1.75H4.42167C4.49402 1.74993 4.56382 1.77675 4.61751 1.82526C4.67119 1.87377 4.70493 1.94051 4.71217 2.0125C4.72539 2.14628 4.73783 2.25361 4.7495 2.3345C4.86542 3.14354 5.10299 3.93041 5.45417 4.66842C5.50958 4.78508 5.47342 4.9245 5.36842 4.99917L4.10958 5.89867C4.87942 7.69199 6.30859 9.12117 8.10192 9.891L9.00025 8.6345C9.03682 8.58298 9.09039 8.54602 9.15153 8.53012C9.21268 8.51422 9.27747 8.5204 9.3345 8.54758C10.0724 8.8981 10.8591 9.13508 11.6678 9.2505C11.7487 9.26217 11.8557 9.27461 11.9887 9.28783C12.0606 9.2952 12.1271 9.329 12.1755 9.38267C12.2239 9.43634 12.2501 9.50607 12.25 9.57833Z" fill="white"/>
</svg>
