<svg width="74" height="70" viewBox="0 0 74 70" fill="none" xmlns="http://www.w3.org/2000/svg">
<g filter="url(#filter0_d_53_797)">
<path d="M8.1 6.15C8.1 4.51892 8.74794 2.95464 9.90129 1.80129C11.0546 0.647945 12.6189 0 14.25 0H59.35C60.9811 0 62.5454 0.647945 63.6987 1.80129C64.8521 2.95464 65.5 4.51892 65.5 6.15V34.85C65.5 36.4811 64.8521 38.0454 63.6987 39.1987C62.5454 40.3521 60.9811 41 59.35 41H36.8V36.9H59.35C59.8937 36.9 60.4151 36.684 60.7996 36.2996C61.184 35.9151 61.4 35.3937 61.4 34.85V6.15C61.4 5.60631 61.184 5.08488 60.7996 4.70043C60.4151 4.31598 59.8937 4.1 59.35 4.1H14.25C13.7063 4.1 13.1849 4.31598 12.8004 4.70043C12.416 5.08488 12.2 5.60631 12.2 6.15V12.3H8.1V6.15ZM36.8 49.2H67.55C68.0937 49.2 68.6151 48.984 68.9996 48.5996C69.384 48.2151 69.6 47.6937 69.6 47.15C69.6 46.6063 69.384 46.0849 68.9996 45.7004C68.6151 45.316 68.0937 45.1 67.55 45.1H36.8V49.2ZM16.3 49.2C15.7563 49.2 15.2349 49.416 14.8504 49.8004C14.466 50.1849 14.25 50.7063 14.25 51.25C14.25 51.7937 14.466 52.3151 14.8504 52.6996C15.2349 53.084 15.7563 53.3 16.3 53.3H20.4C20.9437 53.3 21.4651 53.084 21.8496 52.6996C22.234 52.3151 22.45 51.7937 22.45 51.25C22.45 50.7063 22.234 50.1849 21.8496 49.8004C21.4651 49.416 20.9437 49.2 20.4 49.2H16.3ZM4 22.55C4 20.9189 4.64794 19.3546 5.80129 18.2013C6.95464 17.0479 8.51892 16.4 10.15 16.4H26.55C28.1811 16.4 29.7454 17.0479 30.8987 18.2013C32.0521 19.3546 32.7 20.9189 32.7 22.55V55.35C32.7 56.9811 32.0521 58.5454 30.8987 59.6987C29.7454 60.8521 28.1811 61.5 26.55 61.5H10.15C8.51892 61.5 6.95464 60.8521 5.80129 59.6987C4.64794 58.5454 4 56.9811 4 55.35V22.55ZM10.15 20.5C9.60631 20.5 9.08488 20.716 8.70043 21.1004C8.31598 21.4849 8.1 22.0063 8.1 22.55V55.35C8.1 55.8937 8.31598 56.4151 8.70043 56.7996C9.08488 57.184 9.60631 57.4 10.15 57.4H26.55C27.0937 57.4 27.6151 57.184 27.9996 56.7996C28.384 56.4151 28.6 55.8937 28.6 55.35V22.55C28.6 22.0063 28.384 21.4849 27.9996 21.1004C27.6151 20.716 27.0937 20.5 26.55 20.5H10.15Z" fill="url(#paint0_linear_53_797)"/>
</g>
<defs>
<filter id="filter0_d_53_797" x="0" y="0" width="73.6" height="69.5" filterUnits="userSpaceOnUse" color-interpolation-filters="sRGB">
<feFlood flood-opacity="0" result="BackgroundImageFix"/>
<feColorMatrix in="SourceAlpha" type="matrix" values="0 0 0 0 0 0 0 0 0 0 0 0 0 0 0 0 0 0 127 0" result="hardAlpha"/>
<feOffset dy="4"/>
<feGaussianBlur stdDeviation="2"/>
<feComposite in2="hardAlpha" operator="out"/>
<feColorMatrix type="matrix" values="0 0 0 0 0 0 0 0 0 0 0 0 0 0 0 0 0 0 0.2 0"/>
<feBlend mode="normal" in2="BackgroundImageFix" result="effect1_dropShadow_53_797"/>
<feBlend mode="normal" in="SourceGraphic" in2="effect1_dropShadow_53_797" result="shape"/>
</filter>
<linearGradient id="paint0_linear_53_797" x1="36.8" y1="0" x2="36.8" y2="61.5" gradientUnits="userSpaceOnUse">
<stop stop-color="#0151A6"/>
<stop offset="0.610577" stop-color="#1089D3"/>
</linearGradient>
</defs>
</svg>
