<svg width="29" height="29" viewBox="0 0 29 29" fill="none" xmlns="http://www.w3.org/2000/svg">
<path d="M18.7932 18.7932C19.5854 18.001 20.2138 17.0605 20.6426 16.0254C21.0713 14.9903 21.292 13.8809 21.292 12.7606C21.292 11.6402 21.0713 10.5308 20.6426 9.49576C20.2138 8.46068 19.5854 7.52019 18.7932 6.72797C18.001 5.93576 17.0605 5.30734 16.0254 4.8786C14.9903 4.44986 13.8809 4.22919 12.7606 4.22919C11.6402 4.22919 10.5308 4.44986 9.49576 4.8786C8.46068 5.30734 7.52019 5.93576 6.72797 6.72797C5.12803 8.32792 4.22919 10.4979 4.22919 12.7606C4.22919 15.0232 5.12803 17.1932 6.72797 18.7932C8.32792 20.3931 10.4979 21.292 12.7606 21.292C15.0232 21.292 17.1932 20.3931 18.7932 18.7932ZM18.7932 18.7932L24.1666 24.1666" stroke="url(#paint0_linear_34_21)" stroke-width="1.5" stroke-linecap="round" stroke-linejoin="round"/>
<defs>
<linearGradient id="paint0_linear_34_21" x1="14.1979" y1="4.22919" x2="14.1979" y2="24.1666" gradientUnits="userSpaceOnUse">
<stop stop-color="#0151A6"/>
<stop offset="1" stop-color="#1089D3"/>
</linearGradient>
</defs>
</svg>
