<svg width="19" height="19" viewBox="0 0 19 19" fill="none" xmlns="http://www.w3.org/2000/svg">
<path d="M18.3061 14.4078C18.1444 14.8078 17.3352 15.1387 15.9661 15.3637C15.8386 15.3853 15.7827 15.607 15.7094 15.9695C15.6794 16.1195 15.6469 16.2653 15.6052 16.4195C15.593 16.4835 15.5585 16.5411 15.5077 16.582C15.4583 16.6207 15.3962 16.6395 15.3336 16.6345H15.3127C15.1819 16.629 15.0519 16.6111 14.9244 16.5812C14.587 16.5065 14.2425 16.4682 13.8969 16.467C13.6475 16.467 13.4002 16.4892 13.1552 16.5337C12.6338 16.6767 12.1526 16.9385 11.7494 17.2987C11.0732 17.9205 10.201 18.2865 9.28358 18.3337C9.23191 18.3337 9.18191 18.332 9.14441 18.3295C9.11396 18.3326 9.08335 18.334 9.05274 18.3337C8.13486 18.2874 7.26213 17.9212 6.58608 17.2987C6.18284 16.9385 5.70165 16.6767 5.18025 16.5337C4.93551 16.4893 4.6873 16.467 4.43858 16.467C4.09345 16.4707 3.74975 16.5121 3.41358 16.5903C3.28525 16.6226 3.15525 16.642 3.02358 16.6487C2.9907 16.6531 2.95727 16.651 2.92522 16.6424C2.89317 16.6338 2.86315 16.619 2.83691 16.5987C2.78203 16.556 2.74421 16.4951 2.73025 16.427C2.69054 16.2771 2.65608 16.1259 2.62691 15.9737C2.55191 15.6095 2.49775 15.387 2.37025 15.3653C1.00025 15.1412 0.191912 14.8095 0.0302458 14.4078C0.0136715 14.3674 0.00354799 14.3247 0.000245798 14.2812C-0.00228375 14.2241 0.014772 14.168 0.0485791 14.122C0.0813314 14.0773 0.129936 14.0469 0.184412 14.037C1.31775 13.8187 2.33775 13.1728 3.05941 12.217C3.45899 11.7237 3.78875 11.1777 4.03941 10.5945L4.04275 10.5837C4.1177 10.4516 4.16474 10.3056 4.18094 10.1547C4.19713 10.0037 4.18215 9.85108 4.13691 9.70616C3.96191 9.26366 3.37691 9.06616 2.99025 8.93533C2.90261 8.9078 2.81614 8.87666 2.73108 8.84199C2.38775 8.69783 1.82441 8.392 1.89941 7.97283C1.95513 7.81663 2.05753 7.68135 2.19275 7.58533C2.32409 7.49279 2.48219 7.44594 2.64275 7.45199C2.72048 7.45039 2.79752 7.46694 2.86775 7.50033C3.1536 7.65619 3.4709 7.74563 3.79608 7.76199C3.99065 7.77555 4.18285 7.71278 4.33191 7.58699L4.29858 7.00366C4.12332 5.68949 4.19854 4.35401 4.52025 3.06783C4.88787 2.16015 5.51189 1.37918 6.31608 0.820328C7.09762 0.278371 8.02841 -0.00703777 8.97941 0.00366155L9.34858 0.000328259C10.3007 -0.011065 11.2328 0.274376 12.0152 0.816995C12.8208 1.37583 13.4462 2.15705 13.8152 3.06533C14.1369 4.35295 14.2116 5.68989 14.0352 7.00533L14.0319 7.06866L14.0027 7.58699C14.1402 7.70366 14.3119 7.76449 14.4886 7.76033C14.7944 7.73533 15.0919 7.64783 15.3652 7.50033C15.4545 7.45899 15.5519 7.43793 15.6502 7.43866C15.7641 7.43922 15.873 7.46144 15.9769 7.50533L15.9819 7.50866C16.1014 7.53839 16.2085 7.60519 16.2877 7.69949C16.3703 7.7956 16.4238 7.91325 16.4419 8.03866C16.4452 8.24283 16.3036 8.54699 15.6044 8.84199C15.5191 8.87595 15.4326 8.90708 15.3452 8.93533C14.9569 9.06616 14.3736 9.26366 14.1986 9.70616C14.1532 9.85067 14.1379 10.0029 14.1537 10.1536C14.1695 10.3042 14.2159 10.45 14.2902 10.582L14.2961 10.5937C14.6386 11.4359 15.168 12.1894 15.8444 12.797C16.503 13.3886 17.2936 13.8138 18.1502 14.037C18.2044 14.0471 18.2527 14.0775 18.2852 14.122C18.3191 14.168 18.3361 14.2241 18.3336 14.2812C18.3307 14.3252 18.3209 14.3685 18.3044 14.4095L18.3061 14.4078Z" fill="url(#paint0_linear_61_893)"/>
<defs>
<linearGradient id="paint0_linear_61_893" x1="9.16691" y1="0" x2="9.16691" y2="18.3337" gradientUnits="userSpaceOnUse">
<stop stop-color="#0151A6"/>
<stop offset="1" stop-color="#1089D3"/>
</linearGradient>
</defs>
</svg>
