<svg width="389" height="268" viewBox="0 0 389 268" fill="none" xmlns="http://www.w3.org/2000/svg">
<g clip-path="url(#clip0_98_153)">
<path d="M294.446 81.5742C297.035 82.0527 299.526 82.2608 299.94 85.6314C300.15 87.3482 302.695 87.5238 304.574 87.5701C307.944 87.6538 308.826 88.1495 308.625 90.884C308.463 93.0924 309.247 93.7458 311.516 93.9276C314.503 94.1668 317.302 94.9419 320.446 93.8419C323.276 92.8525 324.894 94.1585 326.237 97.2595C326.522 97.9163 326.93 98.7923 327.774 98.3187C331.618 96.1602 336.208 97.8417 340.327 95.9368C343.063 94.6716 346.961 95.2447 349.706 97.6453C351.034 98.8062 352.609 99.3641 354.256 98.3436C356.003 97.2616 357.449 98.2572 358.348 99.0986C361.203 101.771 364.427 100.976 367.703 100.408C368.141 100.332 368.566 100.188 368.997 100.076C370.776 99.6123 369.109 103.329 371.103 101.745C372.16 100.905 372.899 100.73 374.094 100.598C379.539 99.9954 383.555 102.806 387.73 105.297L385.733 109.567C385.589 109.533 385.443 109.502 385.298 109.475C384.113 109.25 383.032 107.364 382.675 107.879C381.936 108.944 380.451 109.855 380.644 111.344C380.892 113.255 379.853 113.707 377.993 113.788C376.337 113.859 374.645 114.126 373.363 115.318C372.318 116.289 371.08 116.308 369.599 116.257C365.771 116.122 363.71 117.776 363.232 121.307C362.74 124.929 359.024 126.229 357.059 128.779C356.424 129.603 355.854 128.535 355.513 127.986C353.953 125.47 354.919 123.132 356.31 120.925C356.984 119.857 358.065 119.008 358.919 118.029C359.438 117.435 360.785 117.053 360.171 116.129C359.628 115.312 358.38 115.09 357.298 115.116C355.946 115.148 355.032 115.992 354.409 116.949C353.323 118.618 352.044 118.373 350.162 118.066C345.258 117.266 340.18 116.798 336.765 121.277C335.86 122.463 333.062 122.635 333.915 124.561C334.719 126.373 337.192 125.174 338.867 125.644C340.105 125.99 341.773 125.602 341.828 127.118C341.888 128.752 343.716 130.582 341.676 132.038C341.044 132.49 340.472 132.765 340.386 133.535C340.343 133.923 340.358 134.51 339.836 134.508C339.343 134.507 339.397 133.928 339.346 133.555C339.309 133.28 339.335 132.998 339.3 132.722C339.203 131.949 339.577 131.109 338.917 130.413C338.687 131.196 338.608 132.054 338.2 132.751C336.257 136.082 334.186 139.228 329.645 140.23C325.484 141.149 325.071 141.924 326.072 145.747C326.436 147.141 326.445 148.328 324.802 148.821C323.214 149.297 322.72 147.955 322.172 147.026C321.749 146.31 321.512 145.468 321.375 144.657C321.173 143.469 320.449 143.362 319.431 143.702C318.64 143.967 317.799 144.864 317.077 143.801C316.578 143.067 316.261 142.582 315.541 143.502C315.111 144.053 314.432 144.732 314.516 145.269C314.7 146.436 315.651 145.491 316.269 145.546C318.037 145.704 319.703 145.895 317.38 147.792C316.326 148.652 316.641 149.777 316.883 150.9C318.117 156.635 315.416 160.871 309.435 162.815C307.941 163.301 306.074 163.218 305.429 165.136C305.018 166.357 304.404 166.254 303.807 165.03C303.085 163.552 302.005 164.498 301.195 165.014C300.095 165.715 300.077 166.593 301.097 167.434C301.55 167.808 302.035 168.152 302.458 168.551C305.346 171.272 304.329 175.081 300.4 176.502C299.317 176.894 299.15 176.22 298.716 175.66C297.536 174.137 295.5 172.339 293.985 173.587C292.03 175.196 294.098 177.108 295.653 178.462C296.797 179.459 298.144 180.658 297.854 181.953C297.189 184.913 300.071 186.714 300.254 189.336C300.337 190.518 301.588 190.695 302.63 190.958C305.685 191.729 308.529 193.322 311.906 192.843C312.486 192.761 313.339 192.973 313.382 193.541C313.443 194.347 312.523 194.115 311.985 194.159C308.134 194.474 304.191 193.884 300.727 192.876C298.057 192.1 295.797 189.304 294.062 186.972C292.621 185.028 291.041 183.174 289.332 181.42C288.832 180.908 287.897 180.584 288.501 179.809C289.183 178.935 290.177 179.279 290.884 179.845C291.91 180.667 292.805 181.624 293.767 182.513C294.086 182.807 294.543 183.129 294.929 182.833C295.382 182.486 294.897 182.108 294.66 181.807C292.153 178.615 291.214 175.074 291.558 171.173C291.686 169.718 291.425 168.262 289.053 168.728C287.012 169.129 287.066 167.357 286.357 166.444C283.383 162.614 282.278 162.516 278.457 165.621C277.58 166.334 276.618 166.961 275.658 167.58C272.358 169.712 271.488 172.87 273.184 176.375C273.531 177.093 274.382 177.889 273.442 178.616C272.576 179.287 271.846 178.438 271.021 178.182C267.213 176.997 265.778 174.11 265.255 171.003C264.474 166.376 260.647 163.701 257.911 160.311C257.209 159.44 256.16 159.257 255.06 159.239C253.686 159.217 252.3 159.106 250.939 159.227C250.092 159.303 249.286 159.191 248.491 159.032C247.136 158.763 246.332 160.348 247.437 161.11C247.965 161.474 248.537 161.805 249.025 162.199C249.903 162.909 248.999 163.339 248.743 163.94C247.13 167.746 243.105 168.726 239.648 170.172C237.485 171.075 235.438 172.442 232.908 172.577C232.439 172.602 231.972 172.827 231.972 173.315C231.972 173.974 232.545 174.292 233.154 174.342C234.703 174.469 236.068 173.7 237.549 173.485C239.613 173.186 240.608 174.46 239.688 176.167C237.873 179.536 235.539 182.644 232.196 185.013C227.076 188.641 226.589 190.122 228.509 195.556C230.013 199.814 229.837 200.457 225.756 203.273C224.199 204.349 222.865 205.334 223.639 207.369C223.945 208.173 224.021 209.274 223.288 209.733C220.361 211.573 219.403 214.633 217.565 217.122C214.61 221.124 210.082 220.931 205.726 221.233C204.36 221.327 203.331 220.095 203.192 219.132C202.694 215.666 200.805 212.511 199.496 209.455C197.482 204.751 195.971 200.696 197.989 195.736C198.568 194.313 197.805 191.961 196.775 190.579C195.051 188.262 194.231 185.927 194.311 183.202C194.336 182.334 193.817 181.252 192.855 181.379C190.232 181.727 188.105 179.528 185.908 179.978C183.442 180.483 180.743 180.042 178.477 181.324C176.956 182.186 175.609 181.839 174.223 181.01C170.744 178.929 168.772 175.525 165.736 173.055C165.418 172.796 165.225 172.287 165.301 171.904C166.345 166.644 164.349 160.595 169.803 156.468C172.455 154.462 173.502 151.387 176.053 149.331C177.124 148.467 177.174 147.298 175.545 146.72C174.46 146.334 173.328 145.779 173.681 144.712C174.27 142.934 173.136 141.061 174.126 139.434C175.015 137.974 176.741 138.239 178.253 138.312C182.759 138.531 183.171 138.216 182.37 134.035C182.032 132.263 182.495 131.437 184.158 130.342C186.087 129.071 187.93 127.594 189.891 126.333C193.046 124.305 193.402 123.516 191.149 120.435C190.444 119.472 189.987 118.529 189.709 117.443C188.936 114.419 189.457 113.118 192.594 111.776C194.783 110.841 196.424 109.616 197.386 107.57C199.059 104.016 202.28 102.001 206.093 100.665C207.658 100.117 209.293 99.7347 210.869 99.2086C213.677 98.271 216.074 97.8375 218.62 100.289C220.295 101.902 223.491 101.653 225.709 102.962C226.463 103.407 227.634 103.484 228.106 104.068C229.952 106.355 231.305 107.539 232.354 103.583C232.595 102.675 234.189 102.372 235.049 103.304C236.356 104.721 237.533 104.389 239.016 103.61C241.504 102.303 244.389 102.966 247.068 102.491C249.911 101.987 248.046 100.871 247.68 99.9096L247.731 99.8523C249.967 100.269 252.194 100.744 254.445 101.079C255.636 101.256 256.476 101.282 256.846 99.5847C257.649 95.9002 259.467 95.2053 263.912 95.5863C265.503 95.7225 267.041 95.4729 268.652 96.1207C269.583 96.4948 271.252 96.3302 271.511 94.8257C271.871 92.7273 273.049 92.9977 274.786 93.4609C276.392 93.8889 278.584 94.6211 278.561 91.6709C278.555 90.8979 279.605 90.7568 280.343 90.6102C283.583 89.9672 286.606 88.6135 290.099 88.7552C293.307 88.8852 294.172 86.9472 292.448 84.1643C293.393 83.4825 293.937 82.5401 294.446 81.5742ZM191.652 139.035C188.27 139.578 185.975 141.435 184.598 144.11C183.925 145.417 183.338 146.59 181.85 147.234C181.354 147.448 180.348 147.325 180.469 147.914C180.564 148.373 181.579 148.277 182.123 148.104C184.849 147.239 187.563 146.43 190.485 146.199C192.081 146.072 193.514 146.281 194.905 146.86C196.273 147.43 196.097 148.607 196.172 149.724C196.232 150.592 196.978 151.316 197.933 151.361C200.994 151.504 203.91 153.866 207.152 151.808C207.652 151.491 208.739 151.556 209.348 151.828C212.72 153.335 216.327 152.289 219.792 152.723C221.489 152.935 222.092 151.423 222.418 150.301C222.815 148.93 221.592 148.902 220.418 148.828C219.401 148.764 218.347 147.989 217.423 148.133C214.241 148.628 212.84 147.426 212.639 144.646C212.598 144.085 212.224 143.55 211.457 143.646C210.941 143.711 210.986 144.226 210.791 144.568C209.664 146.541 206.747 146.88 205.352 145.201C204.929 144.692 204.892 143.342 204.277 143.622C201.11 145.069 199.709 142.392 197.598 141.463C196.213 140.853 195.351 140.629 195.212 142.459C195.138 143.434 194.54 144.664 193.332 144.34C191.598 143.875 193.137 142.781 193.211 141.955C193.326 140.716 194.311 139.068 191.652 139.035ZM203.738 123.867C205.849 123.967 205.675 123.866 206.532 122.636C208.547 119.747 207.748 116.891 206.697 114.013C206.401 113.203 206.519 111.708 204.888 112.237C203.647 112.64 202.87 113.955 203.674 114.95C206.393 118.316 202.816 119.94 201.352 121.976C200.438 123.249 198.599 124.54 197.046 122.136C196.819 121.784 196.295 121.499 195.928 121.831C195.664 122.069 195.559 122.61 195.633 122.974C196.118 125.362 198.185 124.854 199.952 124.858C201.315 124.861 202.179 123.263 203.738 123.867ZM228.86 140.669C228.215 138.384 224.654 138.581 224.127 135.96C224.007 135.362 223.109 136.878 222.47 137.317C221.458 138.014 220.436 138.222 219.809 137.077C219.296 136.14 218.745 135.577 217.853 136.432C216.833 137.41 215.626 138.42 215.822 139.998C215.947 141.001 216.795 141.574 217.726 141.389C220.65 140.81 223.357 141.182 226.118 142.17C227.274 142.584 228.541 142.088 228.86 140.669ZM225.978 162.359C225.021 162.547 224.984 163.18 224.934 163.872C224.787 165.889 226.381 167.062 227.553 168.436C228.085 169.059 228.631 170.173 229.51 169.832C230.779 169.34 229.98 168.206 229.739 167.35C229.284 165.724 227.967 164.535 227.044 163.146C226.833 162.827 226.375 162.643 225.978 162.359ZM-2.74959 126.692C1.07127 124.56 4.94 122.521 9.21672 121.207C9.76223 121.04 10.5205 120.732 10.4612 120.132C10.3928 119.437 9.47124 119.739 8.98803 119.481C7.01948 118.427 4.97875 117.465 3.11276 116.277C0.807635 114.808 0.914762 113.593 3.28827 112.277C3.80035 111.993 4.40285 111.845 4.96051 111.627C5.59948 111.376 6.9002 111.549 6.64491 110.691C6.42078 109.937 5.30925 110.649 4.59431 110.613C3.99333 110.582 3.34753 110.613 2.80582 110.42C1.76114 110.048 0.839545 109.34 1.02645 108.258C1.26425 106.882 2.60752 106.775 3.86645 106.762C4.42716 106.756 5.23099 107.354 5.48019 106.715C5.71192 106.122 4.75158 106.027 4.26761 105.742C0.651883 103.605 0.665558 103.083 4.30788 101.158C5.22947 100.672 6.09256 100.074 7.05975 99.6843C9.80934 98.578 12.3933 97.908 15.6383 98.9465C19.1552 100.072 23.1106 100.006 26.8205 100.703C31.4232 101.566 35.7933 101.586 40.4872 100.501C44.9956 99.4582 49.8285 100.234 54.3506 101.681C54.8938 101.855 55.5905 102.292 56.013 101.718C56.3951 101.198 55.9286 100.635 55.4173 100.322C54.6538 99.855 53.9555 99.463 53.7618 98.495C53.5422 97.3985 52.8296 97.1537 51.9004 98.0629C50.7987 99.1408 49.4729 99.1214 48.1205 98.5856C46.7362 98.0373 45.6779 97.2325 46.6359 95.7128C47.1723 94.8617 47.7596 94.0845 47.6951 93.0343C47.6039 91.5609 49.0193 91.2366 49.8262 91.7082C52.4223 93.2237 55.6772 92.3837 58.3143 94.238C60.4827 95.7633 63.4769 96.2106 66.3374 94.6239C67.9884 93.7084 69.7305 93.5058 69.3697 96.2072C69.2299 97.256 69.6166 98.401 70.4706 98.8124C72.8152 99.9415 74.7822 100.812 71.4446 103.021C70.7448 103.484 71.2653 104.357 72.136 104.581C73.1738 104.849 74.6622 105.035 74.7815 103.831C74.9213 102.419 75.4592 101.653 76.6695 100.84C78.6441 99.5121 78.3121 98.7018 75.776 98.6776C73.7155 98.6575 73.0097 96.7147 71.459 95.941C73.265 95.6451 73.9746 93.6739 75.9219 93.5522C76.9817 93.4858 78.0317 93.277 79.084 93.1193C80.5853 92.8946 81.6133 92.2143 81.8344 90.7471C81.9468 90.0032 81.8876 89.3173 80.9219 89.1424C79.5444 88.8935 78.3334 88.1481 77.0904 89.9631C75.3353 92.5247 71.8579 90.3807 69.4274 91.554L68.7976 90.0364C69.1782 89.6685 69.2207 89.3014 68.796 88.9343C69.1083 87.4588 67.9314 86.1285 68.7178 84.474C70.0367 81.6987 70.368 81.4152 73.0272 82.9488C73.8204 83.4065 74.8354 83.9223 74.5254 84.8107C74.1098 85.9986 73.0044 84.9919 72.2142 85.0403C71.2334 85.1004 70.289 85.1806 70.2783 86.3007C70.2677 87.4028 71.1619 87.5985 72.174 87.5929C73.2399 87.5874 74.3089 87.6828 75.371 87.631C77.3305 87.5355 78.4754 86.9306 76.9005 85.0838C76.2151 84.2797 75.3353 83.392 76.4651 82.5802C77.6412 81.7347 78.4572 82.9633 79.027 83.6174C79.5961 84.2707 81.592 84.27 80.4106 86.0656C80.0527 86.6098 81.9468 86.981 82.914 87.1981C83.3767 87.3019 83.8318 87.0447 83.9473 86.5752C84.1813 85.6217 83.6821 84.9863 82.7871 84.5542C82.6454 84.4889 82.5094 84.4135 82.3806 84.3288C76.728 80.5482 76.7956 79.3624 82.8654 76.1114C83.9155 75.5477 85.0533 75.1318 86.2402 74.878C92.4536 73.5297 98.8212 73.1405 105.127 72.4691C107.763 72.1884 110.555 73.0098 113.258 73.4281C114.285 73.5871 116.081 73.9729 116.106 74.3373C116.18 75.3965 114.563 75.3578 113.84 76.034C113.43 76.4184 112.665 76.6922 113.073 77.338C113.539 78.0743 114.57 78.1096 115.015 77.5662C117.667 74.3325 121.367 75.1504 125.005 74.9443C127.966 74.777 130.956 74.4223 133.999 73.4696C137.35 72.42 141.346 72.1158 145.111 71.8413C145.865 71.7867 146.835 72.1767 147.363 71.8711C151.917 69.2354 155.725 73.1578 159.976 72.9711C160.483 72.949 160.874 73.3389 160.711 73.8015C160.589 74.1472 160.196 74.6436 159.887 74.6664C157.762 74.8247 155.627 74.8662 153.497 74.9706C153.058 74.9921 152.625 75.1234 152.189 75.2043C152.447 75.8826 153.11 75.651 153.59 75.6503C158.141 75.6406 162.683 76.2255 167.247 75.7277C168.356 75.6067 169.963 75.4629 170.181 76.9805C170.352 78.1746 168.957 78.4007 168.05 78.8536C164.789 80.4825 161.153 81.9151 163.651 86.3609C163.964 86.9161 163.153 87.4291 163.167 87.8605C163.29 91.6944 159.607 94.6909 160.393 98.6879C160.614 99.8122 159.839 100.985 158.583 101.337C155.839 102.108 153.705 104.308 150.572 104.131C150.276 104.114 149.909 104.133 149.679 104.276C145.194 107.068 139.22 108.393 137.718 114.151C137.148 116.338 135.741 116.611 133.594 116.053C130.194 115.168 128.513 112.813 126.805 110.272C125.035 107.638 124.268 105.254 126.978 102.781C127.401 102.395 127.372 101.911 126.78 101.407C125.428 100.257 123.039 96.4872 122.681 95.2337C121.582 91.3881 117.374 88.2484 113.205 89.262C108.599 90.3821 106.941 87.5916 104.627 85.3832C103.687 84.4858 104.511 83.858 105.361 83.4715C106.578 82.9177 108.011 82.9211 109.189 82.1557C110.144 81.5355 110.209 81.0059 109.722 80.0933C109.208 79.1301 108.579 79.4689 107.883 79.7227C103.743 81.2313 100.069 83.0794 98.7095 87.4623C98.2544 88.9315 96.9795 90.1304 96.5617 91.8133C96.2023 93.2611 94.0233 92.9313 92.5539 93.1484C92.0183 93.2279 91.0906 92.7667 91.0435 93.4415C91.0085 93.9421 92.1216 93.7029 92.5987 93.9525C95.9007 95.6769 99.9958 94.6273 103.292 96.799C105.916 98.5282 109.008 99.4347 110.285 102.686C110.908 104.272 113.324 104.846 115.143 105.542C115.993 105.867 117.226 106.118 116.297 107.118C115.57 107.902 115.225 109.78 113.28 108.847C112.625 108.532 112.138 107.934 111.559 107.481C111.224 107.217 110.769 106.865 110.395 107.163C109.984 107.49 110.385 107.898 110.671 108.195C111.074 108.612 111.566 108.966 111.923 109.41C112.575 110.222 114.283 110.981 112.947 112.099C111.939 112.943 110.669 114.302 108.962 113.573C105.598 112.139 102.585 109.828 98.4649 110.494C98.0744 110.557 97.6907 110.086 97.6838 109.634C97.6755 109.127 98.0721 108.919 98.5682 108.883C99.3272 108.828 100.13 108.929 100.84 108.737C102.788 108.209 103.985 106.018 103.291 104.438C102.485 102.604 97.601 100.471 95.2891 100.712C93.6502 100.884 94.72 101.471 94.6091 102.105C94.2968 103.891 95.8612 106.723 91.6824 106.876C90.1986 106.93 91.3732 108.043 91.9712 108.547C93.0576 109.463 95.599 109.607 95.3012 110.942C95.0178 112.214 92.5402 110.364 91.2843 111.66C90.7616 112.199 89.7868 112.255 89.1623 111.791C86.7113 109.972 85.2313 111.861 83.6662 112.989C79.0103 116.346 79.2025 118.202 84.6075 120.572C85.83 121.108 86.9567 121.914 88.265 122.204C91.6733 122.96 94.5772 124.116 95.4334 127.664C95.5846 128.289 96.4325 129.422 97.4574 128.546C98.0212 128.064 98.025 127.261 97.5896 126.68C96.2547 124.896 96.507 123.712 98.7969 122.8C99.8188 122.393 99.508 121.323 99.0803 120.579C98.3198 119.259 98.6115 117.865 98.5416 116.494C98.3638 112.979 100.534 111.692 104.013 113.362C105.335 113.998 106.857 114.743 107.598 115.828C108.841 117.648 109.818 118.592 112.223 117.235C113.787 116.353 114.899 117.707 115.405 118.809C116.51 121.22 118.532 122.773 120.589 124.437C122.156 125.705 124.635 126.843 123.16 129.555C122.682 130.431 123.76 130.625 124.35 130.987C125.376 131.617 126.335 132.314 126.563 133.516C126.668 134.069 126.275 135.043 126.201 134.99C124.522 133.807 122.517 134.934 120.865 134.331C119.751 133.924 119.689 132.85 120.106 131.801C120.747 130.191 119.819 130.233 118.5 130.53C117.623 130.728 116.657 130.854 115.776 130.733C112.602 130.298 112.78 131.28 113.745 133.584C114.602 135.628 115.478 135.469 117.075 134.648C117.822 134.264 118.609 134.351 118.958 135.148C119.29 135.905 118.772 136.791 118.137 136.884C115.757 137.235 113.814 139.845 110.986 138.01C110.135 137.459 108.705 137.878 108.559 138.494C107.982 140.938 105.718 141.582 103.85 142.704C103.498 142.916 103.24 143.349 103.086 143.73C101.711 147.102 99.7474 149.989 96.491 152.256C94.8362 153.408 94.7291 155.411 96.4272 157.067C97.2606 157.879 97.4962 159.001 96.3732 159.586C95.2609 160.164 95.1044 158.712 94.4366 158.262C93.7247 157.783 93.123 157.088 92.6717 156.382C91.3413 154.302 89.2983 154.078 87.1223 154.713C85.7905 155.101 84.5042 155.395 83.1161 155.396C80.384 155.397 77.9451 155.274 78.5788 159.165C78.8151 160.617 76.5342 162.247 78.6206 164.1C80.1401 165.449 81.513 166.089 83.4299 165C84.0764 164.633 84.6812 164.202 85.3354 163.846C86.2881 163.327 87.4734 162.929 88.382 163.441C89.7762 164.228 88.4109 165.217 88.0424 165.9C86.8572 168.099 87.0904 169.238 90.1242 169.216C91.7425 169.204 92.6458 170.188 92.6831 171.636C92.718 172.993 92.0859 174.698 93.9921 175.222C95.9804 175.769 98.5044 175.954 100.056 174.826C103.396 172.397 106.686 172.911 110.277 173.935C111.243 174.21 112.246 174.34 113.255 174.4C119.08 174.75 122.285 179.756 127.632 180.938C129.456 186.681 135.972 185.793 140.168 188.178C141.255 188.796 142.651 189.114 143.827 189.774C146.095 191.049 146.721 192.685 145 194.607C143.279 196.528 142.834 198.779 142.101 201.054C140.897 204.794 140.156 209.114 134.248 209.454C132.655 209.546 131.828 210.909 131.357 212.365C129.466 218.206 128.783 218.822 121.849 221.26C121.311 221.449 121.155 221.643 121.332 222.092C122.421 224.868 120.332 225.623 118.122 225.811C116.056 225.988 115.951 227.551 115.131 228.569C113.657 230.399 113.314 232.891 111.117 234.345C110.98 234.435 111.133 235.239 111.395 235.423C112.816 236.415 112.186 237.054 111.283 238.087C108.286 241.517 108.34 241.705 111.031 245.272C111.461 245.842 112.293 246.267 110.943 246.68C107.293 247.797 103.866 246.253 102.483 242.946C101.404 240.367 101.341 237.549 102.094 235.138C103.668 230.103 103.438 224.871 104.775 219.766C105.799 215.857 106.625 211.509 106.693 207.254C106.736 204.591 105.569 202.541 103.252 201.295C100.687 199.915 99.2497 197.976 98.2833 195.56C98.0265 194.919 97.5653 194.346 97.2409 193.724C96.3846 192.082 92.9824 191.539 94.935 188.632C95.9911 187.059 95.5269 184.771 97.4726 183.472C98.7255 182.635 98.7893 181.418 98.8615 180.125C98.939 178.742 98.5728 178.173 96.902 178.025C93.8804 177.758 90.713 177.461 89.9684 173.869C89.8066 173.088 88.7794 173.002 88.0994 172.877C84.5893 172.228 81.8207 170.107 77.7635 169.973C74.3393 169.859 69.7245 168.278 67.9869 164.127C67.2195 162.295 66.361 160.962 63.1859 161.547C60.589 162.026 58.9039 159.053 58.0226 156.9C56.6481 153.543 54.6887 150.965 51.5152 148.654C48.0848 146.156 47.1427 142.052 47.2293 138.063C47.2886 135.337 47.5157 132.758 44.2943 131.275C43.6083 130.959 43.3272 130.45 43.2322 129.635C42.8546 126.399 42.5628 126.218 38.7868 125.945C37.5719 125.857 37.6198 124.918 37.1731 124.233C34.4265 120.028 30.9384 116.915 25.1103 116.342C22.9981 116.133 21.7012 117.125 20.0153 117.422C18.226 117.736 16.0964 116.977 17.2725 120.003C17.6197 120.898 16.0797 122.252 14.82 121.882C12.5171 121.204 11.42 122.326 10.2394 123.658C9.95825 123.975 9.59964 124.464 9.26003 124.476C5.08739 124.621 1.63806 127.139 -2.48215 127.413L-2.74959 126.692ZM83.9921 95.6506C83.2437 95.7654 82.4961 95.8995 81.9772 96.4657C81.3853 97.1115 81.608 97.7891 82.1026 98.3298C83.7042 100.08 84.8947 102.248 87.7279 102.769C88.2779 102.87 87.585 104.393 88.771 104.127C89.35 103.998 89.9464 103.217 90.1561 102.62C90.4266 101.85 89.6569 101.314 88.9397 101.153C86.4818 100.601 85.6142 99.017 85.3506 96.9456C85.2601 96.2383 85.0231 95.5801 83.9921 95.6506Z" fill="#0151A6" fill-opacity="0.05"/>
<path d="M339.314 198.556C339.273 196.516 339.358 194.77 336.951 194.241C336.657 194.177 336.122 194.031 336.13 193.969C336.664 189.751 332.578 190.431 330.207 189.288C329.683 189.035 329.242 188.605 328.83 188.201C328.092 187.477 327.234 186.588 328.086 185.657C329.083 184.566 330.678 184.93 331.212 185.911C332.33 187.964 333.716 187.355 335.633 187.2C339.88 186.858 343.286 188.928 345.6 191.977C346.499 193.161 349.023 194.488 348.241 195.273C346.994 196.525 345.39 194.612 343.974 193.962C342.834 193.44 341.841 193.7 341.089 194.493C340.25 195.38 340.807 196.258 341.284 197.179C343.603 201.669 347.014 205.482 350.271 209.392C353.302 213.032 353.473 215.042 351.041 219.008C350.592 219.74 350.132 220.468 349.75 221.231C346.815 227.092 341.95 227.814 336.961 223.514C334.6 221.479 331.756 219.885 329.023 218.242C327.318 217.218 325.57 217.709 323.849 218.581C321.051 219.998 318.119 221.005 314.843 221.3C311.262 221.622 311.221 221.807 310.717 218.509C310.284 215.674 308.421 213.199 308.852 210.074C309.197 207.579 310.229 206.34 312.764 205.684C314.86 205.143 316.824 204.796 317.839 202.206C318.402 200.77 321.372 199.329 323.842 199.435C325.281 199.496 326.088 199.294 326.808 198.179C327.938 196.431 329.88 196.626 331.721 196.751C332.918 196.833 333.922 197.331 333.628 198.566C332.963 201.352 334.932 202.282 337.182 202.17C339.766 202.041 339.069 199.765 339.314 198.556ZM200.32 80.2592C198.848 80.5897 196.845 79.1599 195.91 81.214C194.951 83.3235 197.62 83.8739 198.269 85.3168C198.631 86.1203 199.408 86.5731 200.126 87.0924C201.421 88.0285 202.793 88.1724 203.629 86.831C204.918 84.7637 206.317 84.7278 208.199 86.0601C208.686 86.4051 209.368 86.3305 209.884 85.9426C210.269 85.6529 210.48 85.1212 210.096 84.8598C206.044 82.108 209.669 82.5747 211.409 82.144C212.114 81.9691 212.756 81.5355 213.382 81.158C213.735 80.9458 214.227 80.6167 214.242 80.3228C214.266 79.8817 213.662 79.8195 213.24 79.7939C211.118 79.6667 209.127 78.7243 206.724 79.0382C204.552 78.6233 202.516 79.7655 200.32 80.2592ZM65.6407 87.5784C64.9303 86.8552 63.8347 86.6838 63.3979 87.6579C61.6945 91.4551 59.6203 88.5775 58.3272 87.6766C54.8786 85.2754 53.394 85.1461 50.4667 87.725C49.1979 88.843 49.1181 89.5441 51.0175 89.8898C53.549 90.3503 55.9286 91.0127 58.2186 92.2517C60.9925 93.7527 66.5752 92.3671 68.7968 90.0364C69.1774 89.6686 69.22 89.3014 68.7953 88.9343C67.4558 89.0352 66.5053 88.4586 65.6407 87.5784ZM303.662 183.827C303.498 183.933 303.469 184.364 303.544 184.602C304.131 186.484 304.754 188.372 307.223 188.915C309.357 189.385 310.919 188.858 312.276 187.105C313.975 184.909 313.203 182.302 314.175 179.999C314.535 179.149 313.336 178.698 311.761 178.688C309.31 180.233 306.472 182.011 303.662 183.827ZM238.259 197.759C236.358 198.975 233.721 199.926 232.744 201.777C231.619 203.908 231.213 206.487 231.376 208.982C231.433 209.858 231.94 210.558 232.984 210.727C234.246 210.932 235.746 210.856 236.107 209.678C237.108 206.415 239.047 203.421 239.54 200.225C239.116 199.14 239.513 196.957 238.259 197.759ZM247.733 99.8592C244.588 96.6815 244.592 96.0115 248.159 93.3171C250.264 91.7276 252.56 90.4049 255.296 89.8172C256.465 89.5662 257.606 89.1611 258.702 88.7089C258.993 88.5886 259.23 88.0292 259.211 87.6849C259.174 87.0329 258.579 86.6948 257.931 86.8393C252.038 88.1509 246.141 89.4694 242.323 94.3639C240.796 96.3206 241.321 98.448 243.657 99.5066C244.937 100.087 246.325 99.9014 247.682 99.9159L247.733 99.8592ZM371.838 233.892C372.938 231.478 374.94 229.965 377.166 228.461C379.868 226.635 379.674 225.316 376.886 223.306C376.297 222.881 375.707 222.185 374.945 222.502C374.025 222.884 374.611 223.685 374.732 224.322C375.083 226.163 374.811 227.421 372.591 228.489C370.704 229.397 369.362 231.329 367.946 232.93C366.831 234.191 367.433 235.526 369.169 235.617C370.359 235.631 371.383 234.891 371.838 233.892ZM339.282 142.229C338.67 141.908 338.027 142.021 337.706 142.546C335.763 145.731 332.522 147.286 328.993 148.597C327.55 149.133 326.545 150.238 326.619 151.829C326.648 152.445 327.024 152.988 327.732 152.701C330.958 151.397 334.286 150.225 337.292 148.575C339.101 147.582 339.712 145.491 340.132 143.869C340.18 142.951 339.836 142.519 339.282 142.229ZM290.104 78.0177C287.917 76.7185 286.568 77.9554 285.751 79.4938C284.9 81.0937 285.521 82.5056 287.583 83.0435C289.192 83.4632 290.827 83.7992 292.451 84.1726C293.393 83.4832 293.937 82.5409 294.446 81.575C293.442 79.9398 291.756 78.9988 290.104 78.0177ZM334.933 89.7861C334.032 91.2235 335.955 91.4427 336.636 92.2033C336.922 92.5227 337.243 92.82 337.487 93.1636C338.172 94.1281 338.995 95.139 340.361 94.7324C342.049 94.2298 339.962 93.0889 340.62 92.3077C340.983 91.8776 341.289 91.4047 341.674 90.9933C342.585 90.0191 341.983 89.486 340.981 89.235C340.119 89.0193 339.193 89.0166 338.593 88.9523C337.103 89.0684 335.593 88.7317 334.933 89.7861ZM317.778 174.028C319.256 175.19 320.598 174.266 321.346 173.445C322.154 172.556 321.262 171.525 320.079 171.311C317.938 170.925 317.809 169.972 318.552 168.341C318.868 167.649 317.966 167.055 317.245 166.877C316.282 166.639 315.937 167.431 315.697 168.069C315.504 168.582 315.526 169.163 315.452 169.713C315.303 171.572 316.319 172.881 317.778 174.028ZM314.181 187.433C314.292 188.666 314.485 190.432 315.958 190.739C316.752 190.905 318.785 190.252 318.651 188.626C318.554 187.435 318.245 186.118 316.414 185.943C315.323 185.992 314.081 186.33 314.181 187.433Z" fill="#0151A6" fill-opacity="0.05"/>
</g>
<defs>
<clipPath id="clip0_98_153">
<rect width="389" height="354" fill="white" transform="translate(0 -18)"/>
</clipPath>
</defs>
</svg>
