<svg width="18" height="20" viewBox="0 0 18 20" fill="none" xmlns="http://www.w3.org/2000/svg">
<path d="M9.12693 0.016875C10.2176 0 11.3019 0.01 12.3851 0C12.4507 1.27562 12.9094 2.575 13.8432 3.47688C14.7751 4.40125 16.0932 4.82438 17.3757 4.9675V8.32312C16.1738 8.28375 14.9663 8.03375 13.8757 7.51625C13.4007 7.30125 12.9582 7.02437 12.5251 6.74125C12.5194 9.17625 12.5351 11.6081 12.5094 14.0331C12.4444 15.1981 12.0601 16.3575 11.3826 17.3175C10.2926 18.9156 8.40068 19.9575 6.45756 19.99C5.26568 20.0581 4.07506 19.7331 3.05943 19.1344C1.37631 18.1419 0.191933 16.325 0.0194329 14.375C-0.00254644 13.962 -0.00588318 13.5483 0.00943285 13.135C0.159433 11.5494 0.943808 10.0325 2.16131 9.00062C3.54131 7.79875 5.47443 7.22625 7.28443 7.565C7.30131 8.79938 7.25193 10.0325 7.25193 11.2669C6.42506 10.9994 5.45881 11.0744 4.73631 11.5763C4.20777 11.9245 3.80833 12.4369 3.59943 13.0344C3.42693 13.4569 3.47631 13.9263 3.48631 14.375C3.68443 15.7425 4.99943 16.8919 6.40318 16.7675C7.33381 16.7575 8.22568 16.2175 8.71068 15.4269C8.86756 15.15 9.04318 14.8669 9.05256 14.5413C9.13443 13.0506 9.10193 11.5662 9.11193 10.0756C9.11881 6.71625 9.10193 3.36625 9.12756 0.0175L9.12693 0.016875Z" fill="url(#paint0_linear_61_882)"/>
<defs>
<linearGradient id="paint0_linear_61_882" x1="8.68784" y1="0" x2="8.68784" y2="19.9989" gradientUnits="userSpaceOnUse">
<stop stop-color="#0151A6"/>
<stop offset="1" stop-color="#1089D3"/>
</linearGradient>
</defs>
</svg>
