<svg width="23" height="23" viewBox="0 0 23 23" fill="none" xmlns="http://www.w3.org/2000/svg">
<path d="M11.25 22.5C9.70167 22.5 8.24334 22.2042 6.87501 21.6125C5.50667 21.02 4.31501 20.2158 3.30001 19.2C2.28501 18.1842 1.48084 16.9925 0.887507 15.625C0.294174 14.2575 -0.00165966 12.7992 7.0028e-06 11.25C7.0028e-06 9.69667 0.29584 8.23708 0.887507 6.87125C1.48001 5.50458 2.28417 4.31417 3.30001 3.3C4.31584 2.28583 5.50751 1.48167 6.87501 0.8875C8.24334 0.295833 9.70167 0 11.25 0C12.8033 0 14.2629 0.295833 15.6288 0.8875C16.9954 1.48 18.1863 2.28417 19.2013 3.3C20.2163 4.31583 21.02 5.50625 21.6125 6.87125C22.2042 8.23792 22.5 9.6975 22.5 11.25C22.5 12.7983 22.2042 14.2567 21.6125 15.625C21.02 16.9933 20.2158 18.185 19.2 19.2C18.1842 20.215 16.9938 21.0192 15.6288 21.6125C14.2638 22.2058 12.8042 22.5017 11.25 22.5ZM11.25 21.26C11.9833 20.3175 12.5883 19.3921 13.065 18.4838C13.5408 17.5754 13.9279 16.5588 14.2263 15.4338H8.27376C8.60459 16.6221 8.99959 17.6704 9.45876 18.5788C9.91876 19.4871 10.5158 20.3808 11.25 21.26ZM9.65876 21.0725C9.07542 20.385 8.54292 19.535 8.06126 18.5225C7.57959 17.5108 7.22126 16.4808 6.98626 15.4325H2.19251C2.90917 16.9867 3.92459 18.2617 5.23876 19.2575C6.55376 20.2525 8.02709 20.8575 9.65876 21.0725ZM12.8413 21.0725C14.4729 20.8575 15.9463 20.2525 17.2613 19.2575C18.5754 18.2617 19.5908 16.9867 20.3075 15.4325H15.515C15.1983 16.4967 14.7996 17.5346 14.3188 18.5462C13.8371 19.5588 13.3446 20.4017 12.8413 21.0725ZM1.68251 14.1838H6.72626C6.63126 13.6704 6.56459 13.1704 6.52626 12.6838C6.48626 12.1979 6.46626 11.72 6.46626 11.25C6.46626 10.78 6.48584 10.3021 6.52501 9.81625C6.56417 9.33042 6.63084 8.83042 6.72501 8.31625H1.68376C1.54792 8.74958 1.44167 9.22167 1.36501 9.7325C1.28834 10.2425 1.25001 10.7483 1.25001 11.25C1.25001 11.7517 1.28792 12.2579 1.36376 12.7688C1.43959 13.2796 1.54584 13.7508 1.68251 14.1825M7.97626 14.1825H14.5238C14.6188 13.67 14.6854 13.1783 14.7238 12.7075C14.7638 12.2375 14.7838 11.7517 14.7838 11.25C14.7838 10.7483 14.7642 10.2625 14.725 9.7925C14.6858 9.3225 14.6192 8.83083 14.525 8.3175H7.97501C7.88084 8.83 7.81417 9.32167 7.77501 9.7925C7.73584 10.2625 7.71626 10.7483 7.71626 11.25C7.71626 11.7517 7.73584 12.2375 7.77501 12.7075C7.81417 13.1775 7.88209 13.6692 7.97626 14.1825ZM15.775 14.1825H20.8175C20.9533 13.75 21.0596 13.2788 21.1363 12.7688C21.2121 12.2579 21.25 11.7517 21.25 11.25C21.25 10.7483 21.2121 10.2421 21.1363 9.73125C21.0604 9.22042 20.9542 8.74917 20.8175 8.3175H15.7738C15.8688 8.83 15.9354 9.32958 15.9738 9.81625C16.0138 10.3029 16.0338 10.7808 16.0338 11.25C16.0338 11.7192 16.0142 12.1971 15.975 12.6838C15.9358 13.1704 15.8692 13.6704 15.775 14.1838M15.515 7.0675H20.3075C19.575 5.48083 18.5717 4.20583 17.2975 3.2425C16.0233 2.27917 14.5379 1.66625 12.8413 1.40375C13.4246 2.17125 13.9492 3.04917 14.415 4.0375C14.8808 5.025 15.2475 6.035 15.515 7.0675ZM8.27376 7.0675H14.2263C13.8963 5.89417 13.4892 4.83333 13.005 3.885C12.5208 2.93667 11.9358 2.055 11.25 1.24C10.5642 2.05417 9.97917 2.93583 9.49501 3.885C9.01084 4.83417 8.60292 5.895 8.27376 7.0675ZM2.19376 7.0675H6.98626C7.25376 6.03583 7.62042 5.02583 8.08626 4.0375C8.55209 3.04917 9.07667 2.17125 9.66001 1.40375C7.94834 1.66708 6.45917 2.28375 5.19251 3.25375C3.92584 4.22542 2.92584 5.49625 2.19251 7.06625" fill="url(#paint0_linear_34_10)"/>
<defs>
<linearGradient id="paint0_linear_34_10" x1="11.25" y1="0" x2="11.25" y2="22.5" gradientUnits="userSpaceOnUse">
<stop stop-color="#0151A6"/>
<stop offset="1" stop-color="#1089D3"/>
</linearGradient>
</defs>
</svg>
